<svg width="109" height="40" viewBox="0 0 109 40" fill="none" xmlns="http://www.w3.org/2000/svg">
<rect width="109" height="40" rx="5" fill="#F92424"/>
<path d="M8.71814 16.1406V14.8182H16.5981V16.1406H13.4213V25H11.89V16.1406H8.71814ZM20.3199 25.1541C19.5675 25.1541 18.9195 24.9934 18.376 24.6719C17.8357 24.3471 17.4181 23.8913 17.1231 23.3047C16.8315 22.7147 16.6856 22.0237 16.6856 21.2315C16.6856 20.4493 16.8315 19.7599 17.1231 19.1634C17.4181 18.5668 17.8291 18.1011 18.3561 17.7663C18.8864 17.4316 19.5062 17.2642 20.2155 17.2642C20.6463 17.2642 21.0639 17.3355 21.4683 17.478C21.8727 17.6205 22.2356 17.8442 22.5571 18.1491C22.8786 18.4541 23.1321 18.8501 23.3177 19.3374C23.5033 19.8213 23.5961 20.4096 23.5961 21.1023V21.6293H17.5258V20.5156H22.1395C22.1395 20.1245 22.0599 19.7782 21.9008 19.4766C21.7417 19.1716 21.518 18.9313 21.2297 18.7557C20.9446 18.58 20.6099 18.4922 20.2254 18.4922C19.8078 18.4922 19.4432 18.5949 19.1316 18.8004C18.8234 19.0026 18.5848 19.2678 18.4157 19.5959C18.25 19.9207 18.1672 20.2737 18.1672 20.6548V21.5249C18.1672 22.0353 18.2566 22.4695 18.4356 22.8274C18.6179 23.1854 18.8715 23.4588 19.1963 23.6477C19.5211 23.8333 19.9006 23.9261 20.3348 23.9261C20.6165 23.9261 20.8734 23.8864 21.1054 23.8068C21.3374 23.724 21.5379 23.6013 21.7069 23.4389C21.876 23.2765 22.0052 23.076 22.0947 22.8374L23.5017 23.0909C23.389 23.5052 23.1868 23.8681 22.8951 24.1797C22.6068 24.4879 22.2439 24.7282 21.8064 24.9006C21.3722 25.0696 20.8767 25.1541 20.3199 25.1541ZM25.1615 25V17.3636H26.5983V18.5767H26.6778C26.817 18.1657 27.0623 17.8426 27.4136 17.6072C27.7682 17.3686 28.1693 17.2493 28.6167 17.2493C28.7095 17.2493 28.8189 17.2526 28.9448 17.2592C29.0741 17.2659 29.1752 17.2741 29.2481 17.2841V18.706C29.1885 18.6894 29.0824 18.6712 28.9299 18.6513C28.7775 18.6281 28.625 18.6165 28.4725 18.6165C28.1212 18.6165 27.808 18.6911 27.5329 18.8402C27.2611 18.986 27.0457 19.1899 26.8866 19.4517C26.7275 19.7102 26.648 20.0052 26.648 20.3366V25H25.1615ZM31.937 14.8182V25H30.4505V14.8182H31.937ZM36.0751 25.169C35.5912 25.169 35.1537 25.0795 34.7626 24.9006C34.3715 24.7183 34.0616 24.4548 33.833 24.1101C33.6076 23.7654 33.4949 23.3428 33.4949 22.8423C33.4949 22.4115 33.5777 22.0568 33.7435 21.7784C33.9092 21.5 34.1329 21.2796 34.4146 21.1172C34.6964 20.9548 35.0112 20.8321 35.3592 20.7493C35.7072 20.6664 36.0619 20.6035 36.4232 20.5604C36.8805 20.5073 37.2517 20.4643 37.5368 20.4311C37.8218 20.3946 38.029 20.3366 38.1582 20.2571C38.2875 20.1776 38.3521 20.0483 38.3521 19.8693V19.8345C38.3521 19.4003 38.2295 19.0639 37.9842 18.8253C37.7423 18.5866 37.381 18.4673 36.9004 18.4673C36.3999 18.4673 36.0055 18.5784 35.7172 18.8004C35.4321 19.0192 35.2349 19.2628 35.1256 19.5312L33.7285 19.2131C33.8943 18.7491 34.1362 18.3745 34.4544 18.0895C34.7759 17.8011 35.1455 17.5923 35.5631 17.4631C35.9807 17.3305 36.4198 17.2642 36.8805 17.2642C37.1855 17.2642 37.5086 17.3007 37.85 17.3736C38.1947 17.4432 38.5162 17.5724 38.8145 17.7614C39.1161 17.9503 39.363 18.2204 39.5553 18.5717C39.7475 18.9197 39.8436 19.3722 39.8436 19.929V25H38.3919V23.956H38.3322C38.2361 24.1482 38.0919 24.3371 37.8997 24.5227C37.7075 24.7083 37.4606 24.8625 37.1589 24.9851C36.8573 25.1077 36.4961 25.169 36.0751 25.169ZM36.3983 23.9759C36.8093 23.9759 37.1606 23.8946 37.4523 23.7322C37.7473 23.5698 37.971 23.3577 38.1234 23.0959C38.2792 22.8307 38.3571 22.5473 38.3571 22.2457V21.2614C38.3041 21.3144 38.2013 21.3641 38.0489 21.4105C37.8997 21.4536 37.729 21.4917 37.5368 21.5249C37.3446 21.5547 37.1573 21.5829 36.975 21.6094C36.7927 21.6326 36.6402 21.6525 36.5176 21.669C36.2293 21.7055 35.9658 21.7668 35.7271 21.853C35.4918 21.9392 35.3029 22.0634 35.1604 22.2259C35.0212 22.3849 34.9516 22.5971 34.9516 22.8622C34.9516 23.2301 35.0874 23.5085 35.3592 23.6974C35.631 23.883 35.9774 23.9759 36.3983 23.9759ZM41.7395 25V17.3636H43.1664V18.6065H43.2609C43.4199 18.1856 43.6801 17.8575 44.0414 17.6222C44.4027 17.3835 44.8352 17.2642 45.339 17.2642C45.8494 17.2642 46.2769 17.3835 46.6216 17.6222C46.9697 17.8608 47.2265 18.1889 47.3922 18.6065H47.4718C47.6541 18.1989 47.9441 17.8741 48.3418 17.6321C48.7395 17.3868 49.2135 17.2642 49.7637 17.2642C50.4564 17.2642 51.0215 17.4813 51.459 17.9155C51.8998 18.3497 52.1202 19.0043 52.1202 19.8793V25H50.6337V20.0185C50.6337 19.5014 50.4929 19.1269 50.2111 18.8949C49.9294 18.6629 49.593 18.5469 49.2019 18.5469C48.718 18.5469 48.3418 18.696 48.0734 18.9943C47.8049 19.2893 47.6707 19.6688 47.6707 20.1328V25H46.1891V19.924C46.1891 19.5097 46.0599 19.1766 45.8013 18.9247C45.5428 18.6728 45.2064 18.5469 44.7921 18.5469C44.5104 18.5469 44.2502 18.6214 44.0116 18.7706C43.7762 18.9164 43.5857 19.1203 43.4398 19.3821C43.2973 19.6439 43.226 19.9472 43.226 20.2919V25H41.7395ZM56.2509 25.169C55.767 25.169 55.3295 25.0795 54.9384 24.9006C54.5473 24.7183 54.2374 24.4548 54.0087 24.1101C53.7833 23.7654 53.6706 23.3428 53.6706 22.8423C53.6706 22.4115 53.7535 22.0568 53.9192 21.7784C54.0849 21.5 54.3087 21.2796 54.5904 21.1172C54.8721 20.9548 55.187 20.8321 55.535 20.7493C55.883 20.6664 56.2376 20.6035 56.5989 20.5604C57.0563 20.5073 57.4275 20.4643 57.7125 20.4311C57.9976 20.3946 58.2047 20.3366 58.334 20.2571C58.4632 20.1776 58.5279 20.0483 58.5279 19.8693V19.8345C58.5279 19.4003 58.4052 19.0639 58.16 18.8253C57.918 18.5866 57.5568 18.4673 57.0762 18.4673C56.5757 18.4673 56.1813 18.5784 55.8929 18.8004C55.6079 19.0192 55.4107 19.2628 55.3013 19.5312L53.9043 19.2131C54.07 18.7491 54.312 18.3745 54.6301 18.0895C54.9516 17.8011 55.3212 17.5923 55.7388 17.4631C56.1564 17.3305 56.5956 17.2642 57.0563 17.2642C57.3612 17.2642 57.6844 17.3007 58.0257 17.3736C58.3704 17.4432 58.6919 17.5724 58.9902 17.7614C59.2918 17.9503 59.5388 18.2204 59.731 18.5717C59.9232 18.9197 60.0194 19.3722 60.0194 19.929V25H58.5676V23.956H58.508C58.4119 24.1482 58.2677 24.3371 58.0755 24.5227C57.8832 24.7083 57.6363 24.8625 57.3347 24.9851C57.0331 25.1077 56.6718 25.169 56.2509 25.169ZM56.574 23.9759C56.985 23.9759 57.3364 23.8946 57.628 23.7322C57.923 23.5698 58.1467 23.3577 58.2992 23.0959C58.455 22.8307 58.5328 22.5473 58.5328 22.2457V21.2614C58.4798 21.3144 58.3771 21.3641 58.2246 21.4105C58.0755 21.4536 57.9048 21.4917 57.7125 21.5249C57.5203 21.5547 57.333 21.5829 57.1507 21.6094C56.9685 21.6326 56.816 21.6525 56.6934 21.669C56.405 21.7055 56.1415 21.7668 55.9029 21.853C55.6676 21.9392 55.4786 22.0634 55.3361 22.2259C55.1969 22.3849 55.1273 22.5971 55.1273 22.8622C55.1273 23.2301 55.2632 23.5085 55.535 23.6974C55.8068 23.883 56.1531 23.9759 56.574 23.9759Z" fill="white"/>
<g clip-path="url(#clip0_24_666)">
<path fill-rule="evenodd" clip-rule="evenodd" d="M99.5 11C99.5 10.6022 99.342 10.2206 99.0607 9.93934C98.7794 9.65804 98.3978 9.5 98 9.5H80C79.6022 9.5 79.2206 9.65804 78.9393 9.93934C78.658 10.2206 78.5 10.6022 78.5 11V29C78.5 29.3978 78.658 29.7794 78.9393 30.0607C79.2206 30.342 79.6022 30.5 80 30.5H98C98.3978 30.5 98.7794 30.342 99.0607 30.0607C99.342 29.7794 99.5 29.3978 99.5 29V11ZM77 11C77 10.2044 77.3161 9.44129 77.8787 8.87868C78.4413 8.31607 79.2044 8 80 8H98C98.7956 8 99.5587 8.31607 100.121 8.87868C100.684 9.44129 101 10.2044 101 11V29C101 29.7956 100.684 30.5587 100.121 31.1213C99.5587 31.6839 98.7956 32 98 32H80C79.2044 32 78.4413 31.6839 77.8787 31.1213C77.3161 30.5587 77 29.7956 77 29V11ZM83.75 19.25C83.5511 19.25 83.3603 19.329 83.2197 19.4697C83.079 19.6103 83 19.8011 83 20C83 20.1989 83.079 20.3897 83.2197 20.5303C83.3603 20.671 83.5511 20.75 83.75 20.75H92.4395L89.219 23.969C89.1493 24.0387 89.094 24.1215 89.0562 24.2126C89.0185 24.3037 88.9991 24.4014 88.9991 24.5C88.9991 24.5986 89.0185 24.6963 89.0562 24.7874C89.094 24.8785 89.1493 24.9613 89.219 25.031C89.2887 25.1007 89.3715 25.156 89.4626 25.1938C89.5537 25.2315 89.6514 25.2509 89.75 25.2509C89.8486 25.2509 89.9463 25.2315 90.0374 25.1938C90.1285 25.156 90.2113 25.1007 90.281 25.031L94.781 20.531C94.8508 20.4613 94.9063 20.3786 94.9441 20.2874C94.9819 20.1963 95.0013 20.0987 95.0013 20C95.0013 19.9013 94.9819 19.8037 94.9441 19.7125C94.9063 19.6214 94.8508 19.5387 94.781 19.469L90.281 14.969C90.2113 14.8993 90.1285 14.844 90.0374 14.8062C89.9463 14.7685 89.8486 14.7491 89.75 14.7491C89.6514 14.7491 89.5537 14.7685 89.4626 14.8062C89.3715 14.844 89.2887 14.8993 89.219 14.969C89.1493 15.0387 89.094 15.1215 89.0562 15.2126C89.0185 15.3037 88.9991 15.4014 88.9991 15.5C88.9991 15.5986 89.0185 15.6963 89.0562 15.7874C89.094 15.8785 89.1493 15.9613 89.219 16.031L92.4395 19.25H83.75Z" fill="white"/>
</g>
<defs>
<clipPath id="clip0_24_666">
<rect width="24" height="24" fill="white" transform="translate(77 8)"/>
</clipPath>
</defs>
</svg>
