<svg width="108" height="40" viewBox="0 0 108 40" fill="none" xmlns="http://www.w3.org/2000/svg">
<rect width="108" height="40" rx="5" fill="#F92424"/>
<g clip-path="url(#clip0_24_649)">
<path fill-rule="evenodd" clip-rule="evenodd" d="M30.5 11C30.5 10.6022 30.342 10.2206 30.0607 9.93934C29.7794 9.65804 29.3978 9.5 29 9.5H11C10.6022 9.5 10.2206 9.65804 9.93934 9.93934C9.65804 10.2206 9.5 10.6022 9.5 11V29C9.5 29.3978 9.65804 29.7794 9.93934 30.0607C10.2206 30.342 10.6022 30.5 11 30.5H29C29.3978 30.5 29.7794 30.342 30.0607 30.0607C30.342 29.7794 30.5 29.3978 30.5 29V11ZM8 11C8 10.2044 8.31607 9.44129 8.87868 8.87868C9.44129 8.31607 10.2044 8 11 8H29C29.7956 8 30.5587 8.31607 31.1213 8.87868C31.6839 9.44129 32 10.2044 32 11V29C32 29.7956 31.6839 30.5587 31.1213 31.1213C30.5587 31.6839 29.7956 32 29 32H11C10.2044 32 9.44129 31.6839 8.87868 31.1213C8.31607 30.5587 8 29.7956 8 29V11ZM25.25 19.25C25.4489 19.25 25.6397 19.329 25.7803 19.4697C25.921 19.6103 26 19.8011 26 20C26 20.1989 25.921 20.3897 25.7803 20.5303C25.6397 20.671 25.4489 20.75 25.25 20.75H16.5605L19.781 23.969C19.8507 24.0387 19.906 24.1215 19.9438 24.2126C19.9815 24.3037 20.0009 24.4014 20.0009 24.5C20.0009 24.5986 19.9815 24.6963 19.9438 24.7874C19.906 24.8785 19.8507 24.9613 19.781 25.031C19.7113 25.1007 19.6285 25.156 19.5374 25.1938C19.4463 25.2315 19.3486 25.2509 19.25 25.2509C19.1514 25.2509 19.0537 25.2315 18.9626 25.1938C18.8715 25.156 18.7887 25.1007 18.719 25.031L14.219 20.531C14.1492 20.4613 14.0937 20.3786 14.0559 20.2874C14.0181 20.1963 13.9987 20.0987 13.9987 20C13.9987 19.9013 14.0181 19.8037 14.0559 19.7125C14.0937 19.6214 14.1492 19.5387 14.219 19.469L18.719 14.969C18.8598 14.8282 19.0508 14.7491 19.25 14.7491C19.4492 14.7491 19.6402 14.8282 19.781 14.969C19.9218 15.1098 20.0009 15.3008 20.0009 15.5C20.0009 15.6992 19.9218 15.8902 19.781 16.031L16.5605 19.25H25.25Z" fill="white"/>
</g>
<path d="M48.6165 16.1406V14.8182H56.4964V16.1406H53.3196V25H51.7884V16.1406H48.6165ZM60.2182 25.1541C59.4658 25.1541 58.8179 24.9934 58.2743 24.6719C57.7341 24.3471 57.3164 23.8913 57.0215 23.3047C56.7298 22.7147 56.584 22.0237 56.584 21.2315C56.584 20.4493 56.7298 19.7599 57.0215 19.1634C57.3164 18.5668 57.7274 18.1011 58.2544 17.7663C58.7847 17.4316 59.4045 17.2642 60.1138 17.2642C60.5447 17.2642 60.9623 17.3355 61.3666 17.478C61.771 17.6205 62.1339 17.8442 62.4554 18.1491C62.7769 18.4541 63.0305 18.8501 63.2161 19.3374C63.4017 19.8213 63.4945 20.4096 63.4945 21.1023V21.6293H57.4242V20.5156H62.0378C62.0378 20.1245 61.9583 19.7782 61.7992 19.4766C61.6401 19.1716 61.4164 18.9313 61.128 18.7557C60.843 18.58 60.5082 18.4922 60.1237 18.4922C59.7061 18.4922 59.3415 18.5949 59.03 18.8004C58.7218 19.0026 58.4831 19.2678 58.3141 19.5959C58.1484 19.9207 58.0655 20.2737 58.0655 20.6548V21.5249C58.0655 22.0353 58.155 22.4695 58.334 22.8274C58.5163 23.1854 58.7698 23.4588 59.0946 23.6477C59.4194 23.8333 59.7989 23.9261 60.2331 23.9261C60.5148 23.9261 60.7717 23.8864 61.0037 23.8068C61.2357 23.724 61.4362 23.6013 61.6053 23.4389C61.7743 23.2765 61.9036 23.076 61.9931 22.8374L63.4 23.0909C63.2873 23.5052 63.0852 23.8681 62.7935 24.1797C62.5051 24.4879 62.1422 24.7282 61.7047 24.9006C61.2705 25.0696 60.775 25.1541 60.2182 25.1541ZM65.0598 25V17.3636H66.4966V18.5767H66.5761C66.7153 18.1657 66.9606 17.8426 67.3119 17.6072C67.6666 17.3686 68.0676 17.2493 68.5151 17.2493C68.6079 17.2493 68.7172 17.2526 68.8432 17.2592C68.9724 17.2659 69.0735 17.2741 69.1465 17.2841V18.706C69.0868 18.6894 68.9807 18.6712 68.8283 18.6513C68.6758 18.6281 68.5233 18.6165 68.3709 18.6165C68.0196 18.6165 67.7063 18.6911 67.4313 18.8402C67.1595 18.986 66.944 19.1899 66.7849 19.4517C66.6259 19.7102 66.5463 20.0052 66.5463 20.3366V25H65.0598ZM70.4682 25V14.8182H71.9547V18.6016H72.0442C72.1303 18.4425 72.2546 18.2585 72.417 18.0497C72.5794 17.8409 72.8048 17.6586 73.0932 17.5028C73.3815 17.3438 73.7627 17.2642 74.2366 17.2642C74.8531 17.2642 75.4033 17.42 75.8872 17.7315C76.3711 18.0431 76.7506 18.4922 77.0257 19.0788C77.3041 19.6655 77.4433 20.3714 77.4433 21.1967C77.4433 22.022 77.3058 22.7296 77.0307 23.3196C76.7556 23.9062 76.3777 24.3587 75.8971 24.6768C75.4166 24.9917 74.868 25.1491 74.2516 25.1491C73.7875 25.1491 73.408 25.0713 73.1131 24.9155C72.8214 24.7597 72.5927 24.5774 72.427 24.3686C72.2613 24.1598 72.1337 23.9742 72.0442 23.8118H71.9199V25H70.4682ZM71.9248 21.1818C71.9248 21.7187 72.0027 22.1894 72.1585 22.5938C72.3143 22.9981 72.5397 23.3146 72.8346 23.5433C73.1296 23.7687 73.4909 23.8814 73.9185 23.8814C74.3626 23.8814 74.7338 23.7637 75.0321 23.5284C75.3304 23.2898 75.5558 22.9666 75.7082 22.5589C75.864 22.1513 75.9419 21.6922 75.9419 21.1818C75.9419 20.678 75.8657 20.2256 75.7132 19.8246C75.5641 19.4235 75.3387 19.107 75.0371 18.875C74.7388 18.643 74.3659 18.527 73.9185 18.527C73.4876 18.527 73.123 18.638 72.8247 18.8601C72.5297 19.0821 72.306 19.392 72.1535 19.7898C72.0011 20.1875 71.9248 20.6515 71.9248 21.1818ZM81.2508 25.169C80.7669 25.169 80.3294 25.0795 79.9383 24.9006C79.5472 24.7183 79.2373 24.4548 79.0086 24.1101C78.7833 23.7654 78.6706 23.3428 78.6706 22.8423C78.6706 22.4115 78.7534 22.0568 78.9191 21.7784C79.0849 21.5 79.3086 21.2796 79.5903 21.1172C79.872 20.9548 80.1869 20.8321 80.5349 20.7493C80.8829 20.6664 81.2376 20.6035 81.5988 20.5604C82.0562 20.5073 82.4274 20.4643 82.7125 20.4311C82.9975 20.3946 83.2047 20.3366 83.3339 20.2571C83.4632 20.1776 83.5278 20.0483 83.5278 19.8693V19.8345C83.5278 19.4003 83.4052 19.0639 83.1599 18.8253C82.918 18.5866 82.5567 18.4673 82.0761 18.4673C81.5756 18.4673 81.1812 18.5784 80.8929 18.8004C80.6078 19.0192 80.4106 19.2628 80.3013 19.5312L78.9042 19.2131C79.07 18.7491 79.3119 18.3745 79.6301 18.0895C79.9516 17.8011 80.3211 17.5923 80.7388 17.4631C81.1564 17.3305 81.5955 17.2642 82.0562 17.2642C82.3611 17.2642 82.6843 17.3007 83.0257 17.3736C83.3704 17.4432 83.6919 17.5724 83.9902 17.7614C84.2918 17.9503 84.5387 18.2204 84.7309 18.5717C84.9232 18.9197 85.0193 19.3722 85.0193 19.929V25H83.5676V23.956H83.5079C83.4118 24.1482 83.2676 24.3371 83.0754 24.5227C82.8832 24.7083 82.6362 24.8625 82.3346 24.9851C82.033 25.1077 81.6718 25.169 81.2508 25.169ZM81.574 23.9759C81.985 23.9759 82.3363 23.8946 82.628 23.7322C82.9229 23.5698 83.1467 23.3577 83.2991 23.0959C83.4549 22.8307 83.5328 22.5473 83.5328 22.2457V21.2614C83.4798 21.3144 83.377 21.3641 83.2245 21.4105C83.0754 21.4536 82.9047 21.4917 82.7125 21.5249C82.5202 21.5547 82.333 21.5829 82.1507 21.6094C81.9684 21.6326 81.8159 21.6525 81.6933 21.669C81.4049 21.7055 81.1414 21.7668 80.9028 21.853C80.6675 21.9392 80.4786 22.0634 80.3361 22.2259C80.1968 22.3849 80.1272 22.5971 80.1272 22.8622C80.1272 23.2301 80.2631 23.5085 80.5349 23.6974C80.8067 23.883 81.1531 23.9759 81.574 23.9759ZM86.9152 25V17.3636H88.352V18.5767H88.4316C88.5708 18.1657 88.816 17.8426 89.1674 17.6072C89.522 17.3686 89.923 17.2493 90.3705 17.2493C90.4633 17.2493 90.5727 17.2526 90.6986 17.2592C90.8279 17.2659 90.929 17.2741 91.0019 17.2841V18.706C90.9422 18.6894 90.8362 18.6712 90.6837 18.6513C90.5312 18.6281 90.3788 18.6165 90.2263 18.6165C89.875 18.6165 89.5618 18.6911 89.2867 18.8402C89.0149 18.986 88.7995 19.1899 88.6404 19.4517C88.4813 19.7102 88.4017 20.0052 88.4017 20.3366V25H86.9152ZM97.0416 21.8331V17.3636H98.5331V25H97.0715V23.6776H96.9919C96.8163 24.0852 96.5345 24.425 96.1467 24.6967C95.7623 24.9652 95.2833 25.0994 94.71 25.0994C94.2194 25.0994 93.7852 24.9917 93.4074 24.7763C93.0329 24.5575 92.7379 24.2344 92.5225 23.8068C92.3103 23.3793 92.2043 22.8506 92.2043 22.2209V17.3636H93.6908V22.0419C93.6908 22.5623 93.835 22.9766 94.1233 23.2848C94.4117 23.593 94.7862 23.7472 95.2469 23.7472C95.5253 23.7472 95.802 23.6776 96.0771 23.5384C96.3556 23.3991 96.5859 23.1887 96.7682 22.907C96.9538 22.6252 97.0449 22.2673 97.0416 21.8331Z" fill="white"/>
<defs>
<clipPath id="clip0_24_649">
<rect width="24" height="24" fill="white" transform="translate(8 8)"/>
</clipPath>
</defs>
</svg>
